<svg width="22" height="21" viewBox="0 0 22 21" fill="none" xmlns="http://www.w3.org/2000/svg">
<path d="M17.5934 11.369L8.03365 9.87096L9.30095 15.5675L17.5934 11.369Z" fill="#D12053"/>
<path d="M17.5934 11.369L10.3898 1.3604L8.03545 9.87276L17.5934 11.369Z" fill="#E2136E"/>
<path d="M7.81192 9.75739L0.264003 0.11113L10.1482 1.2919L7.81192 9.75739Z" fill="#D12053"/>
<path d="M4.37417 5.72654L0.182884 1.77682H1.28614L4.37417 5.72654Z" fill="#9E1638"/>
<path d="M19.6322 6.50351L17.8584 11.3149L14.9831 7.33816L19.6322 6.50351Z" fill="#D12053"/>
<path d="M10.4168 15.2791L17.3771 12.4831L17.6691 11.5943L10.4168 15.2791Z" fill="#E2136E"/>
<path d="M4.85008 20.5556L7.83175 10.0963L9.34422 16.9015L4.85008 20.5556Z" fill="#9E1638"/>
<path d="M19.9099 6.54137L19.178 8.52794L21.8171 8.48468L19.9099 6.54137Z" fill="#E2136E"/>
</svg>
