<svg width="18" height="14" viewBox="0 0 18 14" fill="none" xmlns="http://www.w3.org/2000/svg">
<path d="M0.419893 3.92189H2.51422L3.09913 2.46534C3.38787 1.73619 3.88961 1.11097 4.53894 0.67121C5.18827 0.231446 5.95504 -0.00245129 6.73927 1.93729e-05H11.1867C11.9709 -0.00231456 12.7376 0.231637 13.3869 0.671384C14.0362 1.11113 14.538 1.73627 14.8269 2.46534L15.4108 3.92189H17.5071C17.5709 3.92187 17.634 3.93641 17.6914 3.9644C17.7487 3.9924 17.799 4.03312 17.8383 4.08346C17.8776 4.1338 17.9048 4.19244 17.918 4.25491C17.9313 4.31738 17.93 4.38205 17.9145 4.44398L17.7046 5.2857C17.6819 5.37657 17.6294 5.45724 17.5556 5.51489C17.4818 5.57254 17.3908 5.60385 17.2972 5.60384H16.5941C16.8359 5.81219 17.0301 6.07015 17.1635 6.36018C17.2968 6.65022 17.3662 6.96555 17.367 7.28478V8.96573C17.3651 9.50698 17.1658 10.029 16.8065 10.4337V12.3286C16.8065 12.6258 16.6884 12.9108 16.4783 13.1209C16.2682 13.331 15.9832 13.4491 15.686 13.4491H14.5661C14.2689 13.4491 13.9839 13.331 13.7738 13.1209C13.5636 12.9108 13.4456 12.6258 13.4456 12.3286V11.2052H4.48139V12.3256C4.48139 12.6228 4.36334 12.9078 4.15321 13.1179C3.94308 13.328 3.65809 13.4461 3.36092 13.4461H2.24046C2.09332 13.4461 1.94762 13.4171 1.81168 13.3608C1.67574 13.3045 1.55222 13.222 1.44817 13.1179C1.34413 13.0139 1.26159 12.8903 1.20529 12.7544C1.14898 12.6185 1.12 12.4728 1.12 12.3256V10.4308C0.760559 10.026 0.561253 9.50402 0.559513 8.96273V7.28329C0.560312 6.96407 0.629744 6.64876 0.7631 6.35873C0.896456 6.0687 1.09062 5.81074 1.33242 5.60234H0.629824C0.536163 5.60235 0.445187 5.57104 0.371367 5.51339C0.297544 5.45575 0.245119 5.37507 0.222427 5.2842L0.0124969 4.44398C-0.00294685 4.38205 -0.00408936 4.31743 0.00915909 4.25499C0.0224075 4.19256 0.0496979 4.13397 0.0889606 4.08365C0.128223 4.03334 0.178427 3.99262 0.235765 3.96459C0.293104 3.93657 0.356071 3.92196 0.419893 3.92189ZM12.7475 3.29758C12.6227 2.98566 12.4073 2.71827 12.1291 2.52993C11.8509 2.34159 11.5227 2.24094 11.1867 2.24095H6.73977C6.40381 2.24094 6.07556 2.34159 5.79736 2.52993C5.51916 2.71827 5.30377 2.98566 5.179 3.29758L4.48089 5.04286H13.4456L12.7475 3.29758ZM14.5661 8.95725C14.7153 8.96646 14.8648 8.94391 15.0047 8.89109C15.1446 8.83826 15.2716 8.75636 15.3775 8.6508C15.4834 8.54523 15.5657 8.4184 15.619 8.27869C15.6723 8.13897 15.6953 7.98954 15.6865 7.84028C15.6953 7.69101 15.6723 7.54158 15.619 7.40187C15.5657 7.26215 15.4834 7.13532 15.3775 7.02976C15.2716 6.92419 15.1446 6.84229 15.0047 6.78947C14.8648 6.73664 14.7153 6.71409 14.5661 6.7233C13.8939 6.7233 12.8851 7.72858 12.8851 8.39876C12.8851 9.06895 13.8939 8.95725 14.5661 8.95725ZM3.36092 8.95725C4.0331 8.95725 5.04187 9.06895 5.04187 8.39876C5.04187 7.72858 4.0336 6.7233 3.36092 6.7233C3.21168 6.71409 3.06219 6.73664 2.9223 6.78947C2.78242 6.84229 2.65534 6.92419 2.54944 7.02976C2.44355 7.13532 2.36125 7.26215 2.30799 7.40187C2.25473 7.54158 2.23171 7.69101 2.24046 7.84028C2.23171 7.98954 2.25473 8.13897 2.30799 8.27869C2.36125 8.4184 2.44355 8.54523 2.54944 8.6508C2.65534 8.75636 2.78242 8.83826 2.9223 8.89109C3.06219 8.94391 3.21168 8.96646 3.36092 8.95725Z" fill="#9AC1A3" fill-opacity="0.97"/>
</svg>
