<svg width="14" height="16" viewBox="0 0 14 16" fill="none" xmlns="http://www.w3.org/2000/svg">
<path d="M2.83333 15.5C2.37499 15.5 1.98277 15.3369 1.65666 15.0108C1.32999 14.6842 1.16666 14.2917 1.16666 13.8333V3C0.93055 3 0.732495 2.92028 0.572495 2.76083C0.413051 2.60083 0.333328 2.40278 0.333328 2.16667C0.333328 1.93056 0.413051 1.7325 0.572495 1.5725C0.732495 1.41306 0.93055 1.33333 1.16666 1.33333H4.49999C4.49999 1.09722 4.57999 0.899167 4.74 0.739167C4.89944 0.579722 5.09722 0.5 5.33333 0.5H8.66666C8.90277 0.5 9.10083 0.579722 9.26083 0.739167C9.42027 0.899167 9.49999 1.09722 9.49999 1.33333H12.8333C13.0694 1.33333 13.2672 1.41306 13.4267 1.5725C13.5867 1.7325 13.6667 1.93056 13.6667 2.16667C13.6667 2.40278 13.5867 2.60083 13.4267 2.76083C13.2672 2.92028 13.0694 3 12.8333 3V13.8333C12.8333 14.2917 12.6703 14.6842 12.3442 15.0108C12.0175 15.3369 11.625 15.5 11.1667 15.5H2.83333ZM2.83333 3V13.8333H11.1667V3H2.83333ZM4.49999 11.3333C4.49999 11.5694 4.57999 11.7672 4.74 11.9267C4.89944 12.0867 5.09722 12.1667 5.33333 12.1667C5.56944 12.1667 5.7675 12.0867 5.9275 11.9267C6.08694 11.7672 6.16666 11.5694 6.16666 11.3333V5.5C6.16666 5.26389 6.08694 5.06583 5.9275 4.90583C5.7675 4.74639 5.56944 4.66667 5.33333 4.66667C5.09722 4.66667 4.89944 4.74639 4.74 4.90583C4.57999 5.06583 4.49999 5.26389 4.49999 5.5V11.3333ZM7.83333 11.3333C7.83333 11.5694 7.91333 11.7672 8.07333 11.9267C8.23277 12.0867 8.43055 12.1667 8.66666 12.1667C8.90277 12.1667 9.10083 12.0867 9.26083 11.9267C9.42027 11.7672 9.49999 11.5694 9.49999 11.3333V5.5C9.49999 5.26389 9.42027 5.06583 9.26083 4.90583C9.10083 4.74639 8.90277 4.66667 8.66666 4.66667C8.43055 4.66667 8.23277 4.74639 8.07333 4.90583C7.91333 5.06583 7.83333 5.26389 7.83333 5.5V11.3333ZM2.83333 3V13.8333V3Z" fill="#E45E7F"/>
</svg>
