<svg width="15" height="19" viewBox="0 0 15 19" fill="none" xmlns="http://www.w3.org/2000/svg">
<path d="M6.16666 9.16667H7.91666L13.0833 4L11.3333 2.25L6.16666 7.41667V9.16667ZM13.6667 3.41667L14.8333 2.25L13.0833 0.5L11.9167 1.66667L13.6667 3.41667ZM7 18.3333C4.76388 16.4306 3.09388 14.6631 1.98999 13.0308C0.88555 11.3992 0.333328 9.88889 0.333328 8.5C0.333328 6.41667 1.00361 4.75694 2.34416 3.52083C3.68416 2.28472 5.23611 1.66667 7 1.66667C7.375 1.66667 7.74666 1.69778 8.115 1.76C8.48277 1.82278 8.84027 1.90972 9.1875 2.02083L7.83333 3.39583C7.69444 3.36806 7.55888 3.35056 7.42666 3.34333C7.295 3.33667 7.15277 3.33333 7 3.33333C5.59722 3.33333 4.41305 3.81583 3.44749 4.78083C2.4825 5.74639 1.99999 6.98611 1.99999 8.5C1.99999 9.48611 2.40972 10.6144 3.22916 11.885C4.04861 13.1561 5.30555 14.5694 7 16.125C8.69444 14.5694 9.95138 13.1561 10.7708 11.885C11.5903 10.6144 12 9.48611 12 8.5C12 8.33333 11.9931 8.17 11.9792 8.01C11.9653 7.85056 11.9444 7.69444 11.9167 7.54167L13.2917 6.16667C13.4167 6.52778 13.5106 6.90278 13.5733 7.29167C13.6356 7.68055 13.6667 8.08333 13.6667 8.5C13.6667 9.88889 13.1147 11.3992 12.0108 13.0308C10.9064 14.6631 9.23611 16.4306 7 18.3333Z" fill="#FFA500"/>
</svg>
