<svg width="17" height="17" viewBox="0 0 17 17" fill="none" xmlns="http://www.w3.org/2000/svg">
<path d="M8.32131 1.97495C8.7533 1.97495 9.17559 2.10304 9.53477 2.34304C9.89395 2.58304 10.1739 2.92416 10.3392 3.32327C10.5045 3.72237 10.5478 4.16154 10.4635 4.58522C10.3792 5.00891 10.1712 5.39809 9.86575 5.70355C9.56029 6.00901 9.17111 6.21703 8.74742 6.30131C8.32373 6.38559 7.88457 6.34233 7.48547 6.17702C7.08636 6.01171 6.74524 5.73176 6.50524 5.37257C6.26524 5.01339 6.13715 4.5911 6.13715 4.15911C6.13715 3.57984 6.36726 3.02428 6.77687 2.61467C7.18648 2.20506 7.74203 1.97495 8.32131 1.97495ZM8.32131 11.3362C11.4103 11.3362 14.6658 12.855 14.6658 13.5204V14.6646H1.97495V13.5216C1.97495 12.8557 5.23052 11.3374 8.31946 11.3374M8.31946 0C7.49662 0 6.69226 0.244 6.0081 0.701145C5.32393 1.15829 4.79069 1.80805 4.4758 2.56825C4.16091 3.32846 4.07853 4.16496 4.23905 4.97199C4.39958 5.77902 4.79582 6.52032 5.37765 7.10216C5.95949 7.68399 6.70079 8.08023 7.50782 8.24076C8.31485 8.40128 9.15135 8.31889 9.91156 8.00401C10.6718 7.68912 11.3215 7.15588 11.7787 6.47171C12.2358 5.78755 12.4798 4.98319 12.4798 4.16035C12.48 3.61411 12.3725 3.0732 12.1636 2.56849C11.9547 2.06378 11.6484 1.60516 11.2623 1.21883C10.8761 0.832498 10.4176 0.526017 9.91303 0.316889C9.40841 0.10776 8.86755 8.10317e-05 8.32131 0H8.31946ZM8.31946 9.36124C5.54404 9.36124 0 10.7548 0 13.5216V16.642H16.642V13.5216C16.642 10.7548 11.098 9.36124 8.32131 9.36124H8.31946Z" fill="#E45E7F"/>
</svg>
