<svg xmlns="http://www.w3.org/2000/svg" xmlns:xlink="http://www.w3.org/1999/xlink" width="500" zoomAndPan="magnify" viewBox="0 0 375 374.999991" height="500" preserveAspectRatio="xMidYMid meet" version="1.0"><defs><clipPath id="51bae76694"><path d="M 115 37.5 L 225 37.5 L 225 294 L 115 294 Z M 115 37.5 " clip-rule="nonzero"/></clipPath><clipPath id="da31877c3b"><path d="M 156 122 L 249 122 L 249 337.5 L 156 337.5 Z M 156 122 " clip-rule="nonzero"/></clipPath></defs><g clip-path="url(#51bae76694)"><path fill="#55418e" d="M 140.554688 293.441406 C 140.554688 293.441406 94.300781 246.339844 126.597656 180.203125 C 155.59375 120.832031 224.054688 97.398438 196.527344 37.519531 C 196.527344 37.519531 262.84375 82.667969 189.605469 159.761719 C 108.753906 244.875 140.554688 293.441406 140.554688 293.441406 " fill-opacity="1" fill-rule="nonzero"/></g><g clip-path="url(#da31877c3b)"><path fill="#e45e7f" d="M 178.324219 337.453125 C 178.324219 337.453125 139.472656 297.886719 166.601562 242.339844 C 190.957031 192.464844 248.460938 172.78125 225.339844 122.488281 C 225.339844 122.488281 281.042969 160.410156 219.527344 225.164062 C 151.613281 296.660156 178.324219 337.453125 178.324219 337.453125 " fill-opacity="1" fill-rule="nonzero"/></g></svg>