<svg width="135" height="103" viewBox="0 0 135 103" fill="none" xmlns="http://www.w3.org/2000/svg">
<g clip-path="url(#clip0_1_94)">
<path d="M64.6861 38.0955C65.4205 37.2865 66.6334 37.523 67.4405 38.094C68.4791 38.8288 68.7761 40.1708 68.9293 41.3604C69.1887 43.3743 69.2654 46.221 71.5491 47.0629C72.6042 47.4519 73.8119 47.1307 74.7031 46.499C75.6765 45.8091 76.2837 44.7479 76.6903 43.6481C77.1827 42.3164 77.4677 40.892 77.7093 39.4965C77.9564 38.0694 78.1183 36.6269 78.191 35.1804C78.2622 33.7652 78.2159 32.3594 78.1596 30.9451C78.1157 29.8409 78.0989 28.6814 78.4719 27.6255C78.8486 26.5591 79.7245 25.748 80.8761 25.641C81.994 25.5372 83.1453 26.0086 83.954 26.7693C85.8946 28.5948 85.9859 31.5748 86.4196 34.0224C86.6475 35.3083 86.9806 36.6095 87.6789 37.7283C88.2532 38.6485 89.0513 39.4199 89.9706 39.9922C91.8249 41.1465 94.1877 41.4834 96.2452 40.6903C98.2541 39.9161 99.8711 38.2235 100.571 36.1891C100.744 35.6867 100.85 35.1676 100.904 34.6396C100.93 34.3941 100.546 34.3958 100.521 34.6396C100.291 36.8838 98.85 38.9163 96.8759 39.9807C94.8446 41.0759 92.3848 40.937 90.4002 39.8015C89.4245 39.2433 88.5759 38.456 87.9861 37.4958C87.271 36.3314 86.9647 34.9741 86.7419 33.6415C86.3395 31.2346 86.157 28.4712 84.3531 26.6232C82.9542 25.19 80.3798 24.6148 78.8763 26.2112C77.3282 27.855 77.7922 30.503 77.8417 32.5435C77.9141 35.532 77.606 38.5275 76.923 41.4378C76.6257 42.7046 76.2837 44.011 75.5375 45.0973C74.8556 46.09 73.7411 46.8595 72.5001 46.8472C71.2625 46.835 70.3929 45.9254 69.9535 44.841C69.49 43.6969 69.4596 42.4612 69.2992 41.2535C69.1519 40.1449 68.8836 38.918 68.0522 38.1067C67.4057 37.4757 66.4466 37.0696 65.5367 37.2147C65.0994 37.2844 64.7117 37.4969 64.4147 37.8241C64.249 38.0067 64.5196 38.2789 64.6861 38.0955H64.6861Z" fill="#6C63FF"/>
<path d="M120.162 79.135C119.945 78.7707 119.011 79.1607 118.839 78.8301C118.668 78.5007 119.536 77.9987 120.032 76.8519C120.122 76.6451 120.686 75.342 120.268 74.9399C119.477 74.1776 115.856 77.3231 114.589 76.2937C114.311 76.0678 114.117 75.6169 113.275 74.8847C112.941 74.5935 112.738 74.4619 112.542 74.5109C112.264 74.5803 112.242 74.9524 111.944 75.684C111.497 76.7812 111.233 76.7149 110.972 77.5903C110.779 78.2401 110.823 78.6179 110.595 78.6915C110.273 78.7957 109.977 78.1064 109.569 78.1681C109.152 78.2311 108.901 79.0336 108.821 79.6345C108.672 80.7621 109.086 81.5061 109.315 82.2885C109.565 83.1387 109.713 84.4317 109.137 86.2622L103.436 102.325C104.695 99.0289 108.339 89.9936 109.87 86.6361C110.312 85.6668 110.8 84.6837 111.803 84.2957C112.767 83.9221 114.093 84.1451 115.782 83.7381C115.979 83.6906 116.527 83.5513 116.596 83.2292C116.653 82.963 116.331 82.8144 116.38 82.565C116.447 82.2305 117.08 82.2264 117.858 81.8405C118.407 81.5684 118.749 81.2448 119.043 80.9665C119.132 80.8826 120.449 79.62 120.162 79.135H120.162H120.162Z" fill="#FFA500"/>
<path d="M97.732 87.5911C97.4908 87.592 97.4126 88.1633 97.2008 88.1522C96.9896 88.1412 96.9939 87.5701 96.5742 86.9957C96.4985 86.8922 96.0216 86.2394 95.7038 86.3283C95.1014 86.4967 95.6005 89.1813 94.7297 89.5062C94.5386 89.5775 94.2613 89.5427 93.6591 89.7445C93.4195 89.8248 93.2966 89.8862 93.264 89.9965C93.2179 90.153 93.3942 90.2711 93.6672 90.6285C94.0767 91.1645 93.9679 91.2752 94.3224 91.6556C94.5855 91.938 94.7837 92.0254 94.7542 92.1583C94.7124 92.3464 94.2886 92.293 94.2011 92.5111C94.1119 92.7336 94.4331 93.0887 94.7051 93.3011C95.2155 93.6997 95.7001 93.7112 96.1503 93.8242C96.6396 93.9472 97.3169 94.2476 98.0491 95.0584L104.288 102.491C103.033 100.922 99.6503 96.5268 98.4442 94.8064C98.096 94.3098 97.7543 93.7866 97.8531 93.1827C97.9481 92.6013 98.4399 92.0153 98.7276 91.0687C98.7612 90.9581 98.8508 90.6492 98.7127 90.5224C98.5984 90.4177 98.4326 90.5329 98.3245 90.4366C98.1794 90.3075 98.3602 89.9955 98.3953 89.5022C98.4201 89.1543 98.3599 88.8931 98.3082 88.6685C98.2926 88.6008 98.053 87.5898 97.732 87.591V87.5911Z" fill="#FFA500"/>
<path d="M102.543 88.671L102.398 87.374L102.464 87.2757C102.771 86.821 102.928 86.377 102.93 85.9555C102.93 85.8885 102.927 85.8215 102.924 85.7532C102.911 85.4827 102.896 85.1464 103.071 84.7543C103.169 84.5358 103.445 84.0297 103.861 84.0924C103.972 84.108 104.057 84.1594 104.121 84.2195C104.131 84.2045 104.14 84.1894 104.151 84.1731C104.28 83.9759 104.382 83.8913 104.481 83.8099C104.557 83.7473 104.635 83.6828 104.758 83.53C104.812 83.463 104.854 83.4041 104.889 83.3546C104.996 83.2049 105.137 83.0264 105.384 83.0296C105.648 83.0421 105.787 83.2607 105.879 83.4053C106.042 83.6634 106.117 83.8494 106.166 83.9727C106.184 84.0178 106.204 84.0686 106.214 84.0842C106.299 84.2095 106.992 84.0923 107.253 84.0498C107.838 83.9521 108.345 83.8675 108.554 84.237C108.704 84.5013 108.593 84.8508 108.214 85.3036C108.096 85.4445 107.97 85.5516 107.859 85.6355C107.951 85.6906 108.034 85.7751 108.067 85.9079C108.146 86.2223 107.876 86.5373 107.264 86.8455C107.113 86.9225 106.908 87.0252 106.622 87.0747C106.487 87.0979 106.365 87.1035 106.261 87.1066C106.259 87.1667 106.245 87.2319 106.208 87.2989C106.101 87.4962 105.877 87.5901 105.54 87.5675C105.17 87.5481 104.864 87.4774 104.595 87.4154C104.36 87.3615 104.157 87.3158 103.998 87.3264C103.703 87.3502 103.476 87.5863 103.209 87.8926L102.543 88.671H102.543Z" fill="#FFA500"/>
<path d="M103.217 80.9486L101.999 81.4181L101.887 81.3789C101.37 81.1971 100.9 81.1582 100.492 81.2633C100.427 81.28 100.363 81.3001 100.298 81.3204C100.04 81.4011 99.7182 81.5016 99.2945 81.4314C99.0581 81.3917 98.4986 81.2529 98.4538 80.8354C98.4406 80.7233 98.4689 80.6285 98.5107 80.5512C98.4938 80.5459 98.4768 80.5403 98.4584 80.5344C98.2348 80.4594 98.1271 80.3818 98.0233 80.307C97.9435 80.2496 97.8612 80.1902 97.6823 80.1103C97.6038 80.0752 97.5362 80.0495 97.4794 80.0278C97.3073 79.9619 97.0991 79.8715 97.0394 79.6314C96.9845 79.3726 97.1608 79.1833 97.2774 79.0578C97.4855 78.8339 97.6466 78.715 97.7535 78.6361C97.7926 78.6074 97.8365 78.5749 97.849 78.5609C97.9485 78.4467 97.6596 77.8067 97.5523 77.5652C97.3092 77.0233 97.0988 76.5544 97.4032 76.2586C97.6209 76.0468 97.9871 76.0657 98.5212 76.3173C98.6875 76.3958 98.8229 76.4901 98.9324 76.5766C98.9623 76.4733 99.0231 76.3719 99.143 76.3058C99.4271 76.1497 99.8004 76.3312 100.254 76.8446C100.367 76.972 100.518 77.1437 100.638 77.4083C100.695 77.533 100.731 77.6491 100.761 77.7488C100.819 77.7357 100.886 77.7328 100.96 77.7513C101.178 77.8051 101.326 77.9976 101.389 78.3292C101.465 78.6928 101.474 79.006 101.482 79.2822C101.489 79.5234 101.497 79.7309 101.547 79.8821C101.645 80.1614 101.931 80.3214 102.295 80.5018L103.217 80.9486H103.217Z" fill="#FFA500"/>
<path d="M102.543 77.1275L102.398 75.8305L102.464 75.7322C102.771 75.2775 102.928 74.8335 102.93 74.412C102.93 74.345 102.927 74.278 102.924 74.2097C102.911 73.9392 102.896 73.6029 103.071 73.2108C103.169 72.9923 103.445 72.4862 103.861 72.5489C103.972 72.5645 104.057 72.6159 104.121 72.676C104.131 72.661 104.14 72.6459 104.151 72.6296C104.28 72.4324 104.382 72.3478 104.481 72.2664C104.557 72.2038 104.635 72.1393 104.758 71.9865C104.812 71.9194 104.854 71.8606 104.889 71.8111C104.996 71.6614 105.137 71.4829 105.384 71.4861C105.648 71.4986 105.787 71.7172 105.879 71.8618C106.042 72.1198 106.117 72.3059 106.166 72.4292C106.184 72.4743 106.204 72.525 106.214 72.5407C106.299 72.666 106.992 72.5488 107.253 72.5063C107.838 72.4086 108.345 72.324 108.554 72.6935C108.704 72.9578 108.593 73.3073 108.214 73.7601C108.096 73.901 107.97 74.0081 107.859 74.092C107.951 74.1471 108.034 74.2316 108.067 74.3644C108.146 74.6788 107.876 74.9938 107.264 75.302C107.113 75.379 106.908 75.4817 106.622 75.5312C106.487 75.5543 106.365 75.56 106.261 75.5631C106.259 75.6232 106.245 75.6884 106.208 75.7554C106.101 75.9527 105.877 76.0466 105.54 76.024C105.17 76.0046 104.864 75.9339 104.595 75.8719C104.36 75.818 104.157 75.7723 103.998 75.7829C103.703 75.8067 103.476 76.0428 103.209 76.3491L102.543 77.1275H102.543Z" fill="#FFA500"/>
<path d="M103.87 102.304L103.598 102.133L103.533 101.82L103.598 102.133L103.281 102.17C103.276 102.14 103.259 102.073 103.233 101.967C103.091 101.387 102.659 99.6221 102.298 96.8427C102.046 94.9025 101.904 92.9078 101.875 90.9131C101.845 88.9153 101.94 87.4028 102.015 86.1872C102.073 85.2704 102.142 84.3974 102.211 83.5469C102.392 81.2747 102.563 79.1285 102.436 76.7524C102.408 76.222 102.349 75.1179 101.704 73.943C101.329 73.2616 100.814 72.6566 100.171 72.1456L100.571 71.6433C101.28 72.2082 101.85 72.8783 102.266 73.6349C102.981 74.9375 103.046 76.1406 103.077 76.7186C103.206 79.1367 103.033 81.3036 102.85 83.5976C102.782 84.445 102.712 85.3142 102.655 86.2273C102.58 87.4317 102.487 88.931 102.516 90.9031C102.545 92.874 102.686 94.8442 102.934 96.76C103.29 99.5043 103.716 101.243 103.856 101.814C103.931 102.119 103.947 102.183 103.87 102.304V102.304L103.87 102.304Z" fill="#FFA500"/>
<path d="M98.9952 73.1645C98.9689 73.1645 98.9423 73.1639 98.9154 73.162C98.3693 73.1326 97.8636 72.8057 97.412 72.1907C97.2003 71.9013 97.092 71.5713 96.8759 70.9131C96.8424 70.8116 96.6796 70.2968 96.5806 69.5885C96.5158 69.1257 96.524 68.9322 96.6157 68.7612C96.7175 68.5708 96.8822 68.438 97.0676 68.3485C97.0594 68.2871 97.066 68.2238 97.0926 68.1593C97.2019 67.8919 97.4925 67.927 97.6497 67.9439C97.7292 67.9539 97.8285 67.9671 97.9356 67.9614C98.104 67.9533 98.1945 67.9032 98.3317 67.828C98.4629 67.756 98.626 67.6664 98.8681 67.617C99.3453 67.5174 99.7452 67.6527 99.877 67.6971C100.571 67.9282 100.913 68.4675 101.308 69.0918C101.387 69.2171 101.658 69.673 101.837 70.298C101.966 70.749 101.948 70.9494 101.909 71.0984C101.83 71.4047 101.644 71.58 101.171 71.9671C100.676 72.3723 100.428 72.5752 100.216 72.6986C99.7198 72.9848 99.4086 73.1645 98.9952 73.1645V73.1645Z" fill="#FFA500"/>
<path d="M85.4266 22.3503H76.6691C76.4483 22.3503 76.2687 22.1707 76.2687 21.9499C76.2687 21.7291 76.4483 21.5496 76.6691 21.5496H85.4266C85.6474 21.5496 85.827 21.7291 85.827 21.9499C85.827 22.1707 85.6474 22.3503 85.4266 22.3503V22.3503Z" fill="#E6E6E6"/>
<path d="M98.99 45.6385H90.2325C90.0117 45.6385 89.832 45.4588 89.832 45.2381C89.832 45.0173 90.0117 44.8377 90.2325 44.8377H98.99C99.2108 44.8377 99.3903 45.0173 99.3903 45.2381C99.3903 45.4588 99.2108 45.6385 98.99 45.6385V45.6385Z" fill="#E6E6E6"/>
<path d="M106.156 61.5051H97.398C97.1772 61.5051 96.9976 61.3254 96.9976 61.1047C96.9976 60.8839 97.1772 60.7043 97.398 60.7043H106.156C106.376 60.7043 106.556 60.8839 106.556 61.1047C106.556 61.3254 106.376 61.5051 106.156 61.5051V61.5051Z" fill="#E6E6E6"/>
<path d="M66.233 13.6493H57.4755C57.2547 13.6493 57.0751 13.4696 57.0751 13.2488C57.0751 13.028 57.2547 12.8485 57.4755 12.8485H66.233C66.4538 12.8485 66.6334 13.028 66.6334 13.2488C66.6334 13.4696 66.4538 13.6493 66.233 13.6493V13.6493Z" fill="#FFA500"/>
<path d="M0 102.006C0 102.175 0.135642 102.31 0.304553 102.31H133.966C134.135 102.31 134.27 102.175 134.27 102.006C134.27 101.837 134.135 101.701 133.966 101.701H0.304553C0.135642 101.701 0 101.837 0 102.006Z" fill="#FFA500"/>
<path d="M101.661 56.8588H61.9689C61.8276 56.8588 61.713 56.7442 61.713 56.6029V18.7277C61.713 18.5862 61.8276 18.4718 61.9689 18.4718C62.1103 18.4718 62.2248 18.5862 62.2248 18.7277V34.1818C62.2248 46.4233 72.1485 56.347 84.39 56.347H101.661C101.802 56.347 101.917 56.4614 101.917 56.6029C101.917 56.7443 101.802 56.8588 101.661 56.8588H101.661Z" fill="#FFA500"/>
<path d="M70.3276 41.6369H61.5701C61.3493 41.6369 61.1697 41.4573 61.1697 41.2365C61.1697 41.0157 61.3493 40.8361 61.5701 40.8361H70.3276C70.5484 40.8361 70.728 41.0157 70.728 41.2365C70.728 41.4573 70.5484 41.6369 70.3276 41.6369V41.6369Z" fill="#E6E6E6"/>
<path d="M61.6443 42.7764C63.0332 42.3177 63.9223 41.2293 63.6303 40.3454C63.3382 39.4616 61.9757 39.1171 60.5864 39.5762C60.0289 39.7519 59.5216 40.0586 59.107 40.4706L53.2467 42.4883L54.2522 45.2182L59.9226 42.9392C60.5013 43.0232 61.0916 42.9674 61.6443 42.7764V42.7764Z" fill="#FFB6B6"/>
<path d="M31.52 58.4223C31.5675 59.8842 32.3602 61.0447 33.2906 61.0144C34.2209 60.984 34.9364 59.7745 34.8888 58.312C34.8778 57.7276 34.727 57.1543 34.449 56.6401L34.1698 50.4485L31.2671 50.6414L31.8504 56.7248C31.6063 57.2561 31.493 57.8382 31.52 58.4223L31.52 58.4223Z" fill="#FFB6B6"/>
<path d="M38.2215 100.142L40.8125 100.142L41.4763 90.0816L38.2209 90.148L38.2215 100.142Z" fill="#FFB6B6"/>
<path d="M47.0985 100.083C47.1792 100.219 47.2217 100.658 47.2217 100.816C47.2217 101.301 46.828 101.695 46.3424 101.695H38.3184C37.9871 101.695 37.7184 101.426 37.7184 101.095V100.761C37.7184 100.761 37.3215 99.7569 38.1387 98.5194C38.1387 98.5194 39.1544 99.4884 40.6722 97.9707L41.1197 97.1599L44.3595 99.5293L46.1552 99.7503C46.5481 99.7987 46.8964 99.7428 47.0985 100.083H47.0985V100.083Z" fill="#2F2E41"/>
<path d="M44.3634 100.142L46.9544 100.142L47.6183 90.0816L44.3629 90.148L44.3634 100.142Z" fill="#FFB6B6"/>
<path d="M53.2405 100.083C53.3211 100.219 53.3637 100.658 53.3637 100.816C53.3637 101.301 52.97 101.695 52.4843 101.695H44.4603C44.129 101.695 43.8604 101.426 43.8604 101.095V100.761C43.8604 100.761 43.4635 99.7569 44.2807 98.5194C44.2807 98.5194 45.2964 99.4884 46.8141 97.9707L47.2617 97.1599L50.5014 99.5293L52.2972 99.7503C52.69 99.7987 53.0384 99.7428 53.2404 100.083H53.2405V100.083Z" fill="#2F2E41"/>
<path d="M39.7292 25.2113C41.8342 25.2113 43.5406 23.5049 43.5406 21.3999C43.5406 19.295 41.8342 17.5885 39.7292 17.5885C37.6243 17.5885 35.9178 19.295 35.9178 21.3999C35.9178 23.5049 37.6243 25.2113 39.7292 25.2113Z" fill="#FFB6B6"/>
<path d="M34.4557 53.1021L36.2471 78.6934L37.2707 95.8397L42.1331 95.5837L41.6213 76.9021L42.6449 65.3859L44.1804 95.5837H48.0503L49.5546 53.358L41.2374 52.2064L34.4557 53.1021Z" fill="#2F2E41"/>
<path d="M41.1094 24.4398C40.0254 25.4833 37.5202 24.7914 36.247 24.4398C35.5462 24.2462 35.1233 24.0468 34.9675 23.672C34.8591 23.4115 34.9207 23.1645 34.7115 22.6484C34.5891 22.346 34.5244 22.3235 34.4556 22.1365C34.2638 21.6154 34.5303 21.1512 34.7115 20.6011C35.0898 19.4532 34.6382 19.3243 34.9675 18.5538C35.4625 17.3953 36.8091 16.9239 37.2707 16.7624C38.1326 16.4607 38.8513 16.4926 39.0621 16.5065C40.4121 16.5953 41.3147 17.2881 41.6212 17.5301C42.2425 18.0207 42.5472 18.5396 43.1567 19.5774C43.6871 20.4805 43.7257 20.8271 43.6685 21.1129C43.5814 21.5484 43.3302 21.55 43.1567 22.1365C42.9597 22.8023 43.1838 23.1369 42.9008 23.4161C42.7095 23.6048 42.5317 23.5263 42.133 23.672C41.5843 23.8726 41.3135 24.2433 41.1094 24.4398Z" fill="#2F2E41"/>
<path d="M44.1803 28.2785C44.1803 28.2785 40.3416 23.4161 35.4792 25.2075L33.9045 28.2785L33.3783 28.7765C31.1713 30.8656 30.1445 33.9136 30.6374 36.9124L32.9201 50.7989C32.9201 50.7989 32.6642 56.173 34.4556 57.7085C34.4556 57.7085 37.0147 52.8462 43.1566 55.1494C49.2986 57.4526 50.5781 56.173 50.5781 56.173L48.5308 41.586L44.1803 28.2785Z" fill="#2F2E41"/>
<path d="M42.9008 29.0462L41.6212 31.8613L46.4836 48.2398L59.7911 43.3774L57.9997 40.3064L51.6018 42.0978C51.6018 42.0978 46.7395 27.7667 42.9008 29.0462Z" fill="#2F2E41"/>
<path d="M33.8159 54.7655H31.0008L30.489 34.2924L33.8159 41.2021V54.7655Z" fill="#2F2E41"/>
<path d="M64.6536 39.1548C65.2896 39.1548 65.8052 38.6392 65.8052 38.0032C65.8052 37.3672 65.2896 36.8516 64.6536 36.8516C64.0175 36.8516 63.502 37.3672 63.502 38.0032C63.502 38.6392 64.0175 39.1548 64.6536 39.1548Z" fill="#3F3D56"/>
<path d="M72.3309 48.1118C72.9669 48.1118 73.4825 47.5962 73.4825 46.9602C73.4825 46.3241 72.9669 45.8085 72.3309 45.8085C71.6949 45.8085 71.1793 46.3241 71.1793 46.9602C71.1793 47.5962 71.6949 48.1118 72.3309 48.1118Z" fill="#3F3D56"/>
<path d="M81.032 26.615C81.668 26.615 82.1836 26.0994 82.1836 25.4634C82.1836 24.8274 81.668 24.3118 81.032 24.3118C80.396 24.3118 79.8804 24.8274 79.8804 25.4634C79.8804 26.0994 80.396 26.615 81.032 26.615Z" fill="#3F3D56"/>
<path d="M93.8276 41.9698C94.4637 41.9698 94.9792 41.4542 94.9792 40.8182C94.9792 40.1822 94.4637 39.6666 93.8276 39.6666C93.1916 39.6666 92.676 40.1822 92.676 40.8182C92.676 41.4542 93.1916 41.9698 93.8276 41.9698Z" fill="#3F3D56"/>
<path d="M101.249 35.8279C101.885 35.8279 102.401 35.3123 102.401 34.6763C102.401 34.0403 101.885 33.5247 101.249 33.5247C100.613 33.5247 100.098 34.0403 100.098 34.6763C100.098 35.3123 100.613 35.8279 101.249 35.8279Z" fill="#3F3D56"/>
<path d="M99.0552 10.2427L101.161 11.2404C100.297 10.0348 99.5531 8.15199 99.1546 6.65376C98.4799 8.04937 97.3922 9.757 96.3156 10.777L98.5416 10.2044C97.1699 16.9267 92.0109 21.7527 86.103 21.7527L86.0194 21.9955C92.1903 21.9955 97.6547 17.2364 99.0552 10.2427V10.2427Z" fill="#3F3D56"/>
<path d="M92.6883 0H105.996C106.56 0 107.019 0.459219 107.019 1.02365C107.019 1.58809 106.56 2.04731 105.996 2.04731H92.6883C92.1239 2.04731 91.6647 1.58809 91.6647 1.02365C91.6647 0.459219 92.1239 0 92.6883 0Z" fill="#6C63FF"/>
<path d="M101.679 58.9534C101.538 58.9534 101.397 58.9221 101.262 58.8589C100.929 58.7027 100.721 58.3903 100.704 58.0234L100.566 55.0482C100.548 54.6661 100.747 54.3187 101.086 54.1412C101.425 53.9638 101.824 53.9983 102.128 54.2302L104.154 55.7799C104.398 55.9661 104.537 56.249 104.536 56.5554C104.535 56.8623 104.394 57.144 104.15 57.3289L102.261 58.7547C102.087 58.8861 101.884 58.9533 101.679 58.9533V58.9534Z" fill="#E6E6E6"/>
<path d="M64.3225 18.9758C64.3225 19.1161 64.2912 19.2577 64.228 19.3925C64.0718 19.725 63.7594 19.9338 63.3925 19.9508L60.4173 20.0888C60.0352 20.1065 59.6878 19.9071 59.5103 19.5682C59.3329 19.2294 59.3674 18.8301 59.5993 18.5263L61.149 16.5C61.3352 16.2563 61.6181 16.1171 61.9245 16.1181C62.2314 16.119 62.5131 16.2599 62.698 16.5047L64.1238 18.3931C64.2552 18.5674 64.3225 18.7702 64.3225 18.9758Z" fill="#E6E6E6"/>
<path d="M80.9374 16.3408C79.4224 15.9779 77.8037 16.3063 76.5086 17.1618C75.1505 18.059 74.2513 19.4955 73.947 21.087C73.3191 24.3704 75.2374 27.6505 78.2693 28.9574C81.4566 30.3311 85.2482 29.4093 87.5627 26.8596C88.7099 25.5959 89.4269 23.9971 89.6428 22.3064C89.8554 20.6408 89.6129 18.7191 88.6044 17.329C87.604 15.9501 85.9381 15.4874 84.3293 15.2614C82.7683 15.0422 80.6974 14.9469 79.8534 16.5992C79.6924 16.9142 79.6168 17.2537 79.6346 17.607C79.647 17.8528 80.031 17.8543 80.0185 17.607C79.9795 16.8345 80.4946 16.1889 81.1547 15.8417C81.9198 15.4393 82.8426 15.4734 83.677 15.5631C85.1834 15.725 86.8936 16.0139 87.9799 17.1708C89.062 18.3233 89.3864 20.0795 89.3192 21.6093C89.2491 23.2061 88.699 24.7778 87.7349 26.0548C85.8326 28.5749 82.5041 29.7738 79.4421 28.9597C76.4586 28.1665 76.4196 26.3959 76.4688 23.2603C76.4951 21.5875 74.915 18.9545 76.2051 17.8644C77.4682 16.7971 79.2189 16.3237 80.8354 16.7109C81.0755 16.7685 81.178 16.3984 80.9374 16.3408L80.9374 16.3408Z" fill="#6C63FF"/>
</g>
<defs>
<clipPath id="clip0_1_94">
<rect width="134.27" height="102.491" fill="white"/>
</clipPath>
</defs>
</svg>
