<svg xmlns="http://www.w3.org/2000/svg" xmlns:xlink="http://www.w3.org/1999/xlink" width="600" zoomAndPan="magnify" viewBox="0 0 450 449.999984" height="600" preserveAspectRatio="xMidYMid meet" version="1.0"><defs><clipPath id="a5fe65948d"><path d="M 73 97 L 400 97 L 400 392.625 L 73 392.625 Z M 73 97 " clip-rule="nonzero"/></clipPath><clipPath id="70f350887a"><path d="M 195 57.375 L 382 57.375 L 382 392 L 195 392 Z M 195 57.375 " clip-rule="nonzero"/></clipPath></defs><g clip-path="url(#a5fe65948d)"><path fill="#e7e8ff" d="M 334.398438 392.582031 L 108.285156 392.582031 C 99.535156 392.582031 91.109375 389.289062 84.679688 383.355469 C 68.257812 368.199219 70.167969 341.71875 88.59375 329.078125 L 110.863281 313.796875 C 136.199219 296.414062 142.9375 261.941406 126.015625 236.296875 L 116.902344 222.484375 C 91.109375 183.390625 108.152344 130.460938 151.914062 113.769531 L 185.207031 101.070312 C 203.546875 94.078125 224.261719 98.03125 238.734375 111.292969 L 255.996094 127.109375 C 267.566406 137.710938 285.539062 136.933594 296.152344 125.371094 C 308.085938 112.371094 328.855469 113.269531 339.621094 127.25 L 386.367188 187.933594 C 398.835938 204.117188 397.234375 227.066406 382.644531 241.363281 L 372.710938 251.09375 C 357.273438 266.222656 361.816406 292.136719 381.480469 301.109375 C 398.808594 309.015625 404.875 330.59375 394.210938 346.371094 L 378.976562 368.910156 C 368.972656 383.710938 352.269531 392.582031 334.398438 392.582031 Z M 334.398438 392.582031 " fill-opacity="1" fill-rule="nonzero"/></g><path fill="#ffffff" d="M 196.746094 72.320312 C 196.746094 64.683594 202.933594 58.496094 210.570312 58.496094 L 366.09375 58.496094 C 373.730469 58.496094 379.917969 64.683594 379.917969 72.320312 L 379.917969 376.671875 C 379.917969 384.304688 373.730469 390.496094 366.09375 390.496094 L 210.570312 390.496094 C 202.933594 390.496094 196.746094 384.304688 196.746094 376.671875 Z M 196.746094 72.320312 " fill-opacity="1" fill-rule="nonzero"/><g clip-path="url(#70f350887a)"><path fill="#474646" d="M 195.59375 72.320312 C 195.59375 64.050781 202.296875 57.34375 210.570312 57.34375 L 366.09375 57.34375 C 374.363281 57.34375 381.070312 64.050781 381.070312 72.320312 L 381.070312 376.671875 C 381.070312 384.941406 374.363281 391.648438 366.09375 391.648438 L 210.570312 391.648438 C 202.296875 391.648438 195.59375 384.941406 195.59375 376.671875 Z M 210.570312 59.648438 C 203.570312 59.648438 197.898438 65.320312 197.898438 72.320312 L 197.898438 376.671875 C 197.898438 383.671875 203.570312 389.34375 210.570312 389.34375 L 366.09375 389.34375 C 373.09375 389.34375 378.765625 383.671875 378.765625 376.671875 L 378.765625 72.320312 C 378.765625 65.320312 373.09375 59.648438 366.09375 59.648438 Z M 210.570312 59.648438 " fill-opacity="1" fill-rule="evenodd"/></g><path fill="#474646" d="M 251.878906 69.570312 L 245.972656 58.496094 L 330.691406 58.496094 L 323.742188 70.074219 C 321.660156 73.542969 317.910156 75.667969 313.863281 75.667969 L 262.042969 75.667969 C 257.789062 75.667969 253.878906 73.324219 251.878906 69.570312 Z M 251.878906 69.570312 " fill-opacity="1" fill-rule="nonzero"/><path fill="#474646" d="M 377.671875 65.363281 L 197.824219 65.363281 C 203.777344 59.410156 209.460938 58.304688 211.5625 58.496094 L 363.933594 58.496094 C 371.257812 58.496094 376.144531 63.074219 377.671875 65.363281 Z M 377.671875 65.363281 " fill-opacity="1" fill-rule="nonzero"/><path fill="#474646" d="M 377.585938 383.984375 L 199.082031 383.984375 C 205.265625 390.035156 208.84375 391.160156 211.023438 390.964844 L 365.644531 390.964844 C 373.257812 390.964844 376 386.3125 377.585938 383.984375 Z M 377.585938 383.984375 " fill-opacity="1" fill-rule="nonzero"/><path fill="#f8a435" d="M 212.875 108.289062 C 212.875 106.378906 214.421875 104.832031 216.328125 104.832031 L 249.738281 104.832031 C 251.648438 104.832031 253.195312 106.378906 253.195312 108.289062 C 253.195312 110.199219 251.648438 111.746094 249.738281 111.746094 L 216.328125 111.746094 C 214.421875 111.746094 212.875 110.199219 212.875 108.289062 Z M 212.875 108.289062 " fill-opacity="1" fill-rule="nonzero"/><path fill="#e7e8ff" d="M 267.019531 108.289062 C 267.019531 106.378906 268.566406 104.832031 270.476562 104.832031 L 303.882812 104.832031 C 305.792969 104.832031 307.339844 106.378906 307.339844 108.289062 C 307.339844 110.199219 305.792969 111.746094 303.882812 111.746094 L 270.476562 111.746094 C 268.566406 111.746094 267.019531 110.199219 267.019531 108.289062 Z M 267.019531 108.289062 " fill-opacity="1" fill-rule="nonzero"/><path fill="#e7e8ff" d="M 321.164062 108.289062 C 321.164062 106.378906 322.710938 104.832031 324.621094 104.832031 L 358.03125 104.832031 C 359.9375 104.832031 361.484375 106.378906 361.484375 108.289062 C 361.484375 110.199219 359.9375 111.746094 358.03125 111.746094 L 324.621094 111.746094 C 322.710938 111.746094 321.164062 110.199219 321.164062 108.289062 Z M 321.164062 108.289062 " fill-opacity="1" fill-rule="nonzero"/><path fill="#e7e8ff" d="M 258.953125 173.378906 C 258.953125 172.425781 259.730469 171.652344 260.683594 171.652344 L 302.15625 171.652344 C 303.109375 171.652344 303.882812 172.425781 303.882812 173.378906 C 303.882812 174.332031 303.109375 175.105469 302.15625 175.105469 L 260.683594 175.105469 C 259.730469 175.105469 258.953125 174.332031 258.953125 173.378906 Z M 258.953125 173.378906 " fill-opacity="1" fill-rule="nonzero"/><path fill="#e7e8ff" d="M 258.953125 226.371094 C 258.953125 225.417969 259.730469 224.644531 260.683594 224.644531 L 302.15625 224.644531 C 303.109375 224.644531 303.882812 225.417969 303.882812 226.371094 C 303.882812 227.328125 303.109375 228.101562 302.15625 228.101562 L 260.683594 228.101562 C 259.730469 228.101562 258.953125 227.328125 258.953125 226.371094 Z M 258.953125 226.371094 " fill-opacity="1" fill-rule="nonzero"/><path fill="#e7e8ff" d="M 258.953125 279.367188 C 258.953125 278.410156 259.730469 277.636719 260.683594 277.636719 L 302.15625 277.636719 C 303.109375 277.636719 303.882812 278.410156 303.882812 279.367188 C 303.882812 280.320312 303.109375 281.09375 302.15625 281.09375 L 260.683594 281.09375 C 259.730469 281.09375 258.953125 280.320312 258.953125 279.367188 Z M 258.953125 279.367188 " fill-opacity="1" fill-rule="nonzero"/><path fill="#e7e8ff" d="M 258.953125 332.359375 C 258.953125 331.40625 259.730469 330.632812 260.683594 330.632812 L 302.15625 330.632812 C 303.109375 330.632812 303.882812 331.40625 303.882812 332.359375 C 303.882812 333.3125 303.109375 334.085938 302.15625 334.085938 L 260.683594 334.085938 C 259.730469 334.085938 258.953125 333.3125 258.953125 332.359375 Z M 258.953125 332.359375 " fill-opacity="1" fill-rule="nonzero"/><path fill="#e7e8ff" d="M 209.417969 135.363281 C 209.417969 134.40625 210.191406 133.632812 211.144531 133.632812 L 365.515625 133.632812 C 366.472656 133.632812 367.246094 134.40625 367.246094 135.363281 C 367.246094 136.316406 366.472656 137.089844 365.515625 137.089844 L 211.144531 137.089844 C 210.191406 137.089844 209.417969 136.316406 209.417969 135.363281 Z M 209.417969 135.363281 " fill-opacity="1" fill-rule="nonzero"/><path fill="#e7e8ff" d="M 209.417969 368.070312 C 209.417969 367.117188 210.191406 366.34375 211.144531 366.34375 L 365.515625 366.34375 C 366.472656 366.34375 367.246094 367.117188 367.246094 368.070312 C 367.246094 369.027344 366.472656 369.800781 365.515625 369.800781 L 211.144531 369.800781 C 210.191406 369.800781 209.417969 369.027344 209.417969 368.070312 Z M 209.417969 368.070312 " fill-opacity="1" fill-rule="nonzero"/><path fill="#474646" d="M 366.382812 75.242188 L 368.6875 75.242188 L 368.6875 84.664062 L 366.382812 84.664062 Z M 366.382812 75.242188 " fill-opacity="1" fill-rule="evenodd"/><path fill="#474646" d="M 360.492188 76.421875 L 362.796875 76.421875 L 362.796875 84.664062 L 360.492188 84.664062 Z M 360.492188 76.421875 " fill-opacity="1" fill-rule="evenodd"/><path fill="#474646" d="M 354.605469 78.777344 L 356.90625 78.777344 L 356.90625 84.664062 L 354.605469 84.664062 Z M 354.605469 78.777344 " fill-opacity="1" fill-rule="evenodd"/><path fill="#474646" d="M 348.714844 81.132812 L 351.019531 81.132812 L 351.019531 84.664062 L 348.714844 84.664062 Z M 348.714844 81.132812 " fill-opacity="1" fill-rule="evenodd"/><path fill="#474646" d="M 315.40625 167.042969 C 315.40625 165.132812 316.953125 163.585938 318.859375 163.585938 L 363.789062 163.585938 C 365.699219 163.585938 367.246094 165.132812 367.246094 167.042969 L 367.246094 179.714844 C 367.246094 181.625 365.699219 183.171875 363.789062 183.171875 L 318.859375 183.171875 C 316.953125 183.171875 315.40625 181.625 315.40625 179.714844 Z M 315.40625 167.042969 " fill-opacity="1" fill-rule="nonzero"/><path fill="#474646" d="M 315.40625 220.035156 C 315.40625 218.128906 316.953125 216.578125 318.859375 216.578125 L 363.789062 216.578125 C 365.699219 216.578125 367.246094 218.128906 367.246094 220.035156 L 367.246094 232.707031 C 367.246094 234.617188 365.699219 236.164062 363.789062 236.164062 L 318.859375 236.164062 C 316.953125 236.164062 315.40625 234.617188 315.40625 232.707031 Z M 315.40625 220.035156 " fill-opacity="1" fill-rule="nonzero"/><path fill="#474646" d="M 315.40625 273.03125 C 315.40625 271.121094 316.953125 269.574219 318.859375 269.574219 L 363.789062 269.574219 C 365.699219 269.574219 367.246094 271.121094 367.246094 273.03125 L 367.246094 285.703125 C 367.246094 287.609375 365.699219 289.15625 363.789062 289.15625 L 318.859375 289.15625 C 316.953125 289.15625 315.40625 287.609375 315.40625 285.703125 Z M 315.40625 273.03125 " fill-opacity="1" fill-rule="nonzero"/><path fill="#474646" d="M 315.40625 326.023438 C 315.40625 324.113281 316.953125 322.566406 318.859375 322.566406 L 363.789062 322.566406 C 365.699219 322.566406 367.246094 324.113281 367.246094 326.023438 L 367.246094 338.695312 C 367.246094 340.605469 365.699219 342.152344 363.789062 342.152344 L 318.859375 342.152344 C 316.953125 342.152344 315.40625 340.605469 315.40625 338.695312 Z M 315.40625 326.023438 " fill-opacity="1" fill-rule="nonzero"/><path fill="#f8a435" d="M 231.882812 171.941406 C 226.367188 171.941406 221.71875 175.6875 220.257812 180.804688 C 219.738281 182.640625 221.332031 184.21875 223.242188 184.21875 L 240.523438 184.21875 C 242.433594 184.21875 244.027344 182.640625 243.503906 180.804688 C 242.046875 175.6875 237.398438 171.941406 231.882812 171.941406 Z M 231.882812 171.941406 " fill-opacity="1" fill-rule="nonzero"/><path fill="#f8a435" d="M 237.585938 164.757812 C 237.585938 167.945312 235 170.535156 231.808594 170.535156 C 228.617188 170.535156 226.03125 167.945312 226.03125 164.757812 C 226.03125 161.566406 228.617188 158.980469 231.808594 158.980469 C 235 158.980469 237.585938 161.566406 237.585938 164.757812 Z M 237.585938 164.757812 " fill-opacity="1" fill-rule="nonzero"/><path fill="#f8a435" d="M 231.882812 224.9375 C 226.367188 224.9375 221.71875 228.679688 220.257812 233.800781 C 219.738281 235.636719 221.332031 237.214844 223.242188 237.214844 L 240.523438 237.214844 C 242.433594 237.214844 244.027344 235.636719 243.503906 233.800781 C 242.046875 228.679688 237.398438 224.9375 231.882812 224.9375 Z M 231.882812 224.9375 " fill-opacity="1" fill-rule="nonzero"/><path fill="#f8a435" d="M 237.585938 217.75 C 237.585938 220.941406 235 223.527344 231.808594 223.527344 C 228.617188 223.527344 226.03125 220.941406 226.03125 217.75 C 226.03125 214.558594 228.617188 211.972656 231.808594 211.972656 C 235 211.972656 237.585938 214.558594 237.585938 217.75 Z M 237.585938 217.75 " fill-opacity="1" fill-rule="nonzero"/><path fill="#f8a435" d="M 231.882812 277.929688 C 226.367188 277.929688 221.71875 281.671875 220.257812 286.792969 C 219.738281 288.628906 221.332031 290.207031 223.242188 290.207031 L 240.523438 290.207031 C 242.433594 290.207031 244.027344 288.628906 243.503906 286.792969 C 242.046875 281.671875 237.398438 277.929688 231.882812 277.929688 Z M 231.882812 277.929688 " fill-opacity="1" fill-rule="nonzero"/><path fill="#f8a435" d="M 237.585938 270.742188 C 237.585938 273.933594 235 276.519531 231.808594 276.519531 C 228.617188 276.519531 226.03125 273.933594 226.03125 270.742188 C 226.03125 267.550781 228.617188 264.964844 231.808594 264.964844 C 235 264.964844 237.585938 267.550781 237.585938 270.742188 Z M 237.585938 270.742188 " fill-opacity="1" fill-rule="nonzero"/><path fill="#f8a435" d="M 231.882812 330.921875 C 226.367188 330.921875 221.71875 334.667969 220.257812 339.785156 C 219.738281 341.621094 221.332031 343.199219 223.242188 343.199219 L 240.523438 343.199219 C 242.433594 343.199219 244.027344 341.621094 243.503906 339.785156 C 242.046875 334.667969 237.398438 330.921875 231.882812 330.921875 Z M 231.882812 330.921875 " fill-opacity="1" fill-rule="nonzero"/><path fill="#f8a435" d="M 237.585938 323.734375 C 237.585938 326.925781 235 329.511719 231.808594 329.511719 C 228.617188 329.511719 226.03125 326.925781 226.03125 323.734375 C 226.03125 320.546875 228.617188 317.957031 231.808594 317.957031 C 235 317.957031 237.585938 320.546875 237.585938 323.734375 Z M 237.585938 323.734375 " fill-opacity="1" fill-rule="nonzero"/><path fill="#e7e8ff" d="M 231.882812 155.523438 C 222.019531 155.523438 214.027344 163.515625 214.027344 173.378906 C 214.027344 183.242188 222.019531 191.234375 231.882812 191.234375 C 241.746094 191.234375 249.738281 183.242188 249.738281 173.378906 C 249.738281 163.515625 241.746094 155.523438 231.882812 155.523438 Z M 211.722656 173.378906 C 211.722656 162.246094 220.75 153.21875 231.882812 153.21875 C 243.015625 153.21875 252.042969 162.246094 252.042969 173.378906 C 252.042969 184.515625 243.015625 193.539062 231.882812 193.539062 C 220.75 193.539062 211.722656 184.515625 211.722656 173.378906 Z M 211.722656 173.378906 " fill-opacity="1" fill-rule="evenodd"/><path fill="#e7e8ff" d="M 231.882812 208.515625 C 222.019531 208.515625 214.027344 216.511719 214.027344 226.371094 C 214.027344 236.234375 222.019531 244.230469 231.882812 244.230469 C 241.746094 244.230469 249.738281 236.234375 249.738281 226.371094 C 249.738281 216.511719 241.746094 208.515625 231.882812 208.515625 Z M 211.722656 226.371094 C 211.722656 215.238281 220.75 206.210938 231.882812 206.210938 C 243.015625 206.210938 252.042969 215.238281 252.042969 226.371094 C 252.042969 237.507812 243.015625 246.53125 231.882812 246.53125 C 220.75 246.53125 211.722656 237.507812 211.722656 226.371094 Z M 211.722656 226.371094 " fill-opacity="1" fill-rule="evenodd"/><path fill="#e7e8ff" d="M 231.882812 261.507812 C 222.019531 261.507812 214.027344 269.503906 214.027344 279.367188 C 214.027344 289.226562 222.019531 297.222656 231.882812 297.222656 C 241.746094 297.222656 249.738281 289.226562 249.738281 279.367188 C 249.738281 269.503906 241.746094 261.507812 231.882812 261.507812 Z M 211.722656 279.367188 C 211.722656 268.230469 220.75 259.207031 231.882812 259.207031 C 243.015625 259.207031 252.042969 268.230469 252.042969 279.367188 C 252.042969 290.5 243.015625 299.527344 231.882812 299.527344 C 220.75 299.527344 211.722656 290.5 211.722656 279.367188 Z M 211.722656 279.367188 " fill-opacity="1" fill-rule="evenodd"/><path fill="#e7e8ff" d="M 231.882812 314.503906 C 222.019531 314.503906 214.027344 322.496094 214.027344 332.359375 C 214.027344 342.222656 222.019531 350.214844 231.882812 350.214844 C 241.746094 350.214844 249.738281 342.222656 249.738281 332.359375 C 249.738281 322.496094 241.746094 314.503906 231.882812 314.503906 Z M 211.722656 332.359375 C 211.722656 321.226562 220.75 312.199219 231.882812 312.199219 C 243.015625 312.199219 252.042969 321.226562 252.042969 332.359375 C 252.042969 343.492188 243.015625 352.519531 231.882812 352.519531 C 220.75 352.519531 211.722656 343.492188 211.722656 332.359375 Z M 211.722656 332.359375 " fill-opacity="1" fill-rule="evenodd"/><path fill="#ffffff" d="M 111.089844 107.457031 C 111.089844 125.816406 125.96875 140.699219 144.328125 140.699219 C 150.667969 140.699219 156.59375 138.921875 161.636719 135.84375 L 171.527344 139.351562 C 173.179688 139.9375 174.835938 138.476562 174.457031 136.761719 L 172.042969 125.816406 C 175.535156 120.554688 177.570312 114.246094 177.570312 107.457031 C 177.570312 89.097656 162.6875 74.21875 144.328125 74.21875 C 125.96875 74.21875 111.089844 89.097656 111.089844 107.457031 Z M 111.089844 107.457031 " fill-opacity="1" fill-rule="nonzero"/><path fill="#474646" d="M 144.328125 74.960938 C 126.382812 74.960938 111.832031 89.511719 111.832031 107.457031 C 111.832031 125.402344 126.382812 139.953125 144.328125 139.953125 C 150.527344 139.953125 156.320312 138.21875 161.246094 135.207031 L 161.550781 135.019531 L 171.777344 138.648438 C 172.878906 139.039062 173.980469 138.066406 173.730469 136.925781 L 171.246094 125.667969 L 171.421875 125.40625 C 174.835938 120.261719 176.824219 114.09375 176.824219 107.457031 C 176.824219 89.511719 162.273438 74.960938 144.328125 74.960938 Z M 110.34375 107.457031 C 110.34375 88.6875 125.558594 73.472656 144.328125 73.472656 C 163.097656 73.472656 178.3125 88.6875 178.3125 107.457031 C 178.3125 114.28125 176.300781 120.636719 172.835938 125.964844 L 175.183594 136.601562 C 175.6875 138.886719 173.484375 140.835938 171.28125 140.050781 L 161.71875 136.660156 C 156.628906 139.699219 150.683594 141.441406 144.328125 141.441406 C 125.558594 141.441406 110.34375 126.226562 110.34375 107.457031 Z M 110.34375 107.457031 " fill-opacity="1" fill-rule="evenodd"/><path fill="#f8a435" d="M 144.488281 106.574219 C 135.199219 106.574219 127.539062 113.648438 126.453125 122.777344 C 126.308594 124.003906 127.324219 125.007812 128.554688 125.007812 L 160.417969 125.007812 C 161.648438 125.007812 162.664062 124.003906 162.519531 122.777344 C 161.433594 113.648438 153.773438 106.574219 144.488281 106.574219 Z M 144.488281 106.574219 " fill-opacity="1" fill-rule="nonzero"/><path fill="#f8a435" d="M 153.046875 95.78125 C 153.046875 100.574219 149.164062 104.457031 144.371094 104.457031 C 139.582031 104.457031 135.695312 100.574219 135.695312 95.78125 C 135.695312 90.992188 139.582031 87.105469 144.371094 87.105469 C 149.164062 87.105469 153.046875 90.992188 153.046875 95.78125 Z M 153.046875 95.78125 " fill-opacity="1" fill-rule="nonzero"/><path fill="#f8a435" d="M 88.675781 164.578125 L 85.253906 169.03125 C 85.046875 169.304688 84.707031 169.433594 84.375 169.371094 L 80.148438 168.566406 C 79.238281 168.390625 78.6875 169.554688 79.390625 170.167969 L 82.714844 173.070312 C 82.957031 173.28125 83.070312 173.605469 83.015625 173.925781 L 82.179688 178.710938 C 82.023438 179.609375 83.113281 180.167969 83.730469 179.503906 L 87.144531 175.828125 C 87.34375 175.609375 87.632812 175.507812 87.921875 175.546875 L 91.875 176.09375 C 92.761719 176.21875 93.265625 175.089844 92.589844 174.488281 L 89.652344 171.882812 C 89.417969 171.671875 89.304688 171.355469 89.355469 171.039062 L 90.28125 165.292969 C 90.433594 164.351562 89.25 163.828125 88.675781 164.578125 Z M 88.675781 164.578125 " fill-opacity="1" fill-rule="nonzero"/><path fill="#efcb96" d="M 155.480469 234.917969 L 158.660156 246.402344 C 160.246094 252.144531 155.480469 258.929688 142.238281 258.929688 C 131.648438 258.929688 130.058594 249.1875 130.589844 244.316406 L 133.238281 231.265625 C 130.589844 228.65625 128.46875 227.089844 128.46875 214.5625 C 128.46875 198.902344 136.945312 193.160156 147.007812 193.160156 C 157.070312 193.160156 165.542969 201.503906 165.542969 216.648438 C 165.542969 229.699219 158.480469 233.875 155.480469 234.917969 Z M 155.480469 234.917969 " fill-opacity="1" fill-rule="nonzero"/><path fill="#474646" d="M 180.613281 223.472656 C 188.492188 231.644531 187.4375 251.769531 186.226562 257.898438 C 171.40625 246.96875 162.148438 244.527344 158.519531 245.039062 L 155.210938 234.199219 C 160.914062 232.667969 164.542969 227.558594 165.058594 215.808594 C 165.476562 206.410156 160.738281 199.972656 158.320312 197.929688 C 150.023438 197.417969 145.878906 207.636719 143.285156 211.722656 C 141.210938 214.992188 139.65625 214.445312 139.136719 213.765625 C 136.546875 207.636719 131.878906 207.125 130.84375 213.765625 C 130.015625 219.078125 133.953125 221.769531 136.027344 222.449219 L 130.816406 245.039062 C 119.21875 245.683594 105.6875 252.113281 101.820312 254.683594 C 100.265625 238.335938 115.289062 226.027344 119.4375 215.808594 C 123.585938 205.589844 117.882812 200.484375 122.03125 193.84375 C 125.101562 188.917969 130.84375 188.222656 134.472656 187.199219 C 138.101562 186.179688 140.175781 182.09375 144.320312 180.046875 C 151.582031 177.496094 158.492188 183.792969 160.394531 188.222656 C 161.605469 188.050781 165.058594 188.527344 169.207031 191.796875 C 181.132812 199.972656 170.761719 213.253906 180.613281 223.472656 Z M 180.613281 223.472656 " fill-opacity="1" fill-rule="nonzero"/><path fill="#474646" d="M 144.949219 234.265625 C 151.125 235.707031 154.730469 235.167969 155.761719 234.714844 L 157.304688 239.664062 C 150.714844 240.382812 146.320312 236.367188 144.949219 234.265625 Z M 144.949219 234.265625 " fill-opacity="1" fill-rule="nonzero"/><path fill="#f8a435" d="M 143.5625 254.203125 C 153.960938 254.203125 158.84375 247.832031 159.984375 244.644531 C 179.824219 244.644531 196.246094 258.300781 203.769531 267.859375 C 211.296875 277.414062 239.347656 327.9375 232.503906 348.417969 C 227.03125 364.804688 213.804688 367.308594 206.507812 366.171875 L 207.746094 388.457031 C 207.816406 389.703125 206.824219 390.75 205.578125 390.75 L 104.5625 390.75 C 94.074219 391.433594 71.175781 391.703125 63.511719 387.335938 C 53.933594 381.875 45.039062 353.882812 63.511719 298.582031 C 78.292969 254.339844 113.003906 244.191406 128.511719 244.644531 C 129.195312 247.832031 133.164062 254.203125 143.5625 254.203125 Z M 143.5625 254.203125 " fill-opacity="1" fill-rule="nonzero"/><path fill="#474646" d="M 93.738281 390.789062 C 77.246094 370.730469 59.804688 363.570312 53.148438 362.5 C 53.148438 368.929688 56.371094 381.144531 62.167969 386.929688 C 66.808594 391.5625 85.148438 391.433594 93.738281 390.789062 Z M 93.738281 390.789062 " fill-opacity="1" fill-rule="nonzero"/><path fill="#474646" d="M 221.3125 363.785156 C 232.136719 359.671875 233.984375 344.925781 233.554688 338.066406 C 223.761719 342.695312 210.574219 358.425781 205.203125 365.714844 C 206.0625 366.785156 210.488281 367.898438 221.3125 363.785156 Z M 221.3125 363.785156 " fill-opacity="1" fill-rule="nonzero"/><path fill="#474646" d="M 142.195312 317.015625 C 137.40625 319.0625 101.828125 335.675781 85.410156 343.640625 C 87.460938 340.226562 95.671875 334.765625 97.722656 332.71875 C 99.777344 330.667969 107.300781 306.773438 107.300781 310.1875 C 107.300781 313.601562 103.195312 329.304688 105.25 329.304688 C 107.300781 329.304688 136.039062 317.015625 142.195312 317.015625 Z M 142.195312 317.015625 " fill-opacity="1" fill-rule="nonzero"/><path fill="#474646" d="M 156.5625 336.8125 C 127.554688 375.59375 103.882812 389.382812 95.671875 391.433594 L 110.039062 391.433594 C 134.667969 372.316406 151.316406 347.054688 156.5625 336.8125 Z M 156.5625 336.8125 " fill-opacity="1" fill-rule="nonzero"/><path fill="#474646" d="M 192.140625 329.984375 C 193.234375 343.09375 202.628906 359.570312 207.191406 366.171875 L 207.191406 372.316406 C 196.789062 360.84375 192.824219 339.316406 192.140625 329.984375 Z M 192.140625 329.984375 " fill-opacity="1" fill-rule="nonzero"/><path fill="#474646" d="M 205.140625 311.550781 C 208.96875 313.738281 215.859375 318.835938 218.824219 321.109375 L 207.875 308.140625 C 207.328125 310.324219 205.824219 311.324219 205.140625 311.550781 Z M 205.140625 311.550781 " fill-opacity="1" fill-rule="nonzero"/><path stroke-linecap="butt" transform="matrix(0.723926, 0, 0, 0.723926, 40.435143, 40.000778)" fill-opacity="1" fill="#ffffff" fill-rule="nonzero" stroke-linejoin="miter" d="M 171.669275 340.109593 L 164.325418 411.513894 C 164.260667 412.177593 164.843427 412.717185 165.496334 412.598475 L 200.34323 406.360783 C 200.769508 406.28524 201.093264 405.945297 201.158015 405.524415 L 211.264586 337.67603 C 211.356317 337.044707 210.838308 336.48353 210.201589 336.532094 L 172.591978 339.213869 C 172.106345 339.246245 171.717838 339.62396 171.669275 340.109593 Z M 171.669275 340.109593 " stroke="#032068" stroke-width="2" stroke-opacity="1" stroke-miterlimit="4"/><path fill="#efcb96" d="M 200.347656 311.550781 L 192.136719 323.84375 C 181.191406 324.523438 179.136719 318.378906 181.191406 308.820312 C 182.832031 301.175781 188.945312 301.082031 191.453125 301.996094 L 192.820312 296.53125 C 200.347656 302.675781 200.347656 308.59375 200.347656 311.550781 Z M 200.347656 311.550781 " fill-opacity="1" fill-rule="nonzero"/><path fill="#efcb96" d="M 152.457031 310.1875 C 150.816406 314.558594 147.667969 317.46875 146.300781 318.378906 L 155.195312 332.035156 C 156.355469 330.878906 157.636719 330.210938 159.304688 329.566406 L 161.351562 304.726562 L 162.035156 297.214844 C 157.246094 299.261719 154.511719 304.726562 152.457031 310.1875 Z M 152.457031 310.1875 " fill-opacity="1" fill-rule="nonzero"/></svg>